<svg xmlns="http://www.w3.org/2000/svg" width="219" height="211" viewBox="0 0 219 211">
  <defs>
    <style>
      .cls-1, .cls-2 {
        stroke: #000;
        stroke-linejoin: bevel;
        stroke-width: 3.44px;
      }

      .cls-1, .cls-2, .cls-3, .cls-4 {
        fill-rule: evenodd;
      }

      .cls-2, .cls-3 {
        fill: #fff;
      }
    </style>
  </defs>
  <path class="cls-1" d="M142.036,113.5H38.964v-77H142.036v77Z"/>
  <path class="cls-2" d="M176,176H70V106H176v70Z"/>
  <path id="We_" data-name="We " class="cls-3" d="M96.993,61.906H89.454v1.04a6.436,6.436,0,0,1,2.2.454,0.986,0.986,0,0,1,.681.835,5.135,5.135,0,0,1-.088.857q-0.088.505-.44,1.87-0.5,1.937-1.264,4.659t-1.822,6.361L83.49,62.2H82.056L76.869,77.652q-1.683-5.932-2.539-8.905t-1.192-4.263q-0.03-.146-0.073-0.388a2.276,2.276,0,0,1-.044-0.388q0-.381.783-0.542a12.989,12.989,0,0,1,1.9-.22v-1.04H67.227v1.04a5.249,5.249,0,0,1,.886.154,2.814,2.814,0,0,1,1.553,1.018,2.574,2.574,0,0,1,.388.806q0.527,1.875,2.08,7.39t3,10.642h1.294l5.455-16.01,5.247,16.01h1.349q1.6-5.112,2.974-9.631t2.417-7.9a3.863,3.863,0,0,1,.549-1.165,3.058,3.058,0,0,1,.828-0.74,4.118,4.118,0,0,1,.894-0.4,3.289,3.289,0,0,1,.85-0.169v-1.04Zm12.422,16.758a6.043,6.043,0,0,1-1.824,2.2,4.051,4.051,0,0,1-2.249.611,4.609,4.609,0,0,1-2.2-.492,4.082,4.082,0,0,1-1.494-1.343,6.192,6.192,0,0,1-.857-2.041,11.357,11.357,0,0,1-.271-2.584h9.565V74.05a8.474,8.474,0,0,0-.329-2.417,5.451,5.451,0,0,0-1-1.934,4.818,4.818,0,0,0-1.831-1.362,6.683,6.683,0,0,0-2.71-.5,5.979,5.979,0,0,0-2.776.637,6.346,6.346,0,0,0-2.072,1.677,7.79,7.79,0,0,0-1.311,2.439,8.76,8.76,0,0,0-.447,2.761,10.4,10.4,0,0,0,.418,2.974,7.09,7.09,0,0,0,1.267,2.461,5.994,5.994,0,0,0,2.16,1.67,7.118,7.118,0,0,0,3.054.615,6.121,6.121,0,0,0,3.5-1.025,7.4,7.4,0,0,0,2.432-2.754Zm-8.892-4.878a5.953,5.953,0,0,1,1.106-3.556,3.14,3.14,0,0,1,2.556-1.278,2.515,2.515,0,0,1,1.509.424,2.983,2.983,0,0,1,.923,1.1,5.347,5.347,0,0,1,.446,1.563,11.908,11.908,0,0,1,.14,1.752h-6.68Z"/>
  <path id="Tried" class="cls-4" d="M105.34,128.214H87.22v5.64h1.025a8.478,8.478,0,0,1,.469-1.224,9.993,9.993,0,0,1,.776-1.4,7.74,7.74,0,0,1,.96-1.179,1.787,1.787,0,0,1,1-.578q0.615-.073,1.289-0.1c0.449-.014.825-0.022,1.128-0.022h0.85v16.758a1.778,1.778,0,0,1-.227.96,1.424,1.424,0,0,1-.71.549,4.836,4.836,0,0,1-1.165.22c-0.562.058-.979,0.1-1.252,0.117V149h9.815v-1.04a8.158,8.158,0,0,1-1.311-.19,8.665,8.665,0,0,1-1.106-.279,1.365,1.365,0,0,1-.718-0.622,1.926,1.926,0,0,1-.205-0.887V129.356h0.852q0.587,0,1.277.03c0.46,0.019.841,0.049,1.145,0.088a1.909,1.909,0,0,1,1,.578,6.868,6.868,0,0,1,.962,1.179,11.289,11.289,0,0,1,.771,1.37,6.91,6.91,0,0,1,.477,1.253h1.011v-5.64Zm11.755,6.592a1.989,1.989,0,0,0-1.5-.6,4.276,4.276,0,0,0-2.036.615,6.57,6.57,0,0,0-2.022,1.8h-0.073v-2.036l-0.2-.205-4.8.322v0.967a5.87,5.87,0,0,1,.82.11,2,2,0,0,1,.66.256,1.786,1.786,0,0,1,.593.7,2.038,2.038,0,0,1,.212.893v8.91a1.656,1.656,0,0,1-.2.856,1.058,1.058,0,0,1-.608.461,2.733,2.733,0,0,1-.623.117l-0.7.058V149h7.617v-0.967q-0.424-.028-1-0.1a3.9,3.9,0,0,1-.945-0.22,1.193,1.193,0,0,1-.622-0.483,1.576,1.576,0,0,1-.2-0.835v-8.409a4.78,4.78,0,0,1,1.567-1.582,3.245,3.245,0,0,1,1.612-.556q-0.045.262-.1,0.527a3.1,3.1,0,0,0-.051.586,1.291,1.291,0,0,0,.432.937,1.711,1.711,0,0,0,1.253.425,1.242,1.242,0,0,0,1.128-.578,2.429,2.429,0,0,0,.366-1.326A2.222,2.222,0,0,0,117.1,134.806Zm8.811,13.227a3.793,3.793,0,0,1-.684-0.11,4.853,4.853,0,0,1-.625-0.212,1.162,1.162,0,0,1-.618-0.5,1.668,1.668,0,0,1-.2-0.85V134.586l-0.2-.205-5.1.322v0.967a6.014,6.014,0,0,1,.967.154,2.721,2.721,0,0,1,.806.3,1.871,1.871,0,0,1,.593.651,1.745,1.745,0,0,1,.213.856v8.91a1.646,1.646,0,0,1-.2.856,1.058,1.058,0,0,1-.608.461,2.722,2.722,0,0,1-.623.117l-0.7.058V149h6.972v-0.967Zm-2.365-20.661a1.805,1.805,0,0,0-1.37-.564,1.7,1.7,0,0,0-1.3.6,2.015,2.015,0,0,0-.55,1.406,1.935,1.935,0,0,0,.55,1.355,1.71,1.71,0,0,0,1.3.594,1.737,1.737,0,0,0,1.355-.623,2.134,2.134,0,0,0,.549-1.457A1.848,1.848,0,0,0,123.541,127.372Zm15.959,17.6a6.039,6.039,0,0,1-1.824,2.2,4.051,4.051,0,0,1-2.248.611,4.613,4.613,0,0,1-2.2-.492,4.071,4.071,0,0,1-1.494-1.343,6.214,6.214,0,0,1-.857-2.041,11.408,11.408,0,0,1-.271-2.584h9.566v-0.967a8.477,8.477,0,0,0-.33-2.417,5.43,5.43,0,0,0-1-1.933,4.825,4.825,0,0,0-1.831-1.362,6.684,6.684,0,0,0-2.71-.5,5.971,5.971,0,0,0-2.776.638,6.345,6.345,0,0,0-2.073,1.677,7.8,7.8,0,0,0-1.311,2.439,8.76,8.76,0,0,0-.447,2.761,10.412,10.412,0,0,0,.418,2.974,7.081,7.081,0,0,0,1.267,2.461,6,6,0,0,0,2.161,1.67,7.118,7.118,0,0,0,3.054.615,6.121,6.121,0,0,0,3.5-1.026,7.392,7.392,0,0,0,2.431-2.753Zm-8.892-4.878a5.953,5.953,0,0,1,1.106-3.556,3.141,3.141,0,0,1,2.557-1.278,2.512,2.512,0,0,1,1.508.423,2.977,2.977,0,0,1,.923,1.1,5.362,5.362,0,0,1,.447,1.562,11.911,11.911,0,0,1,.139,1.753h-6.68Zm27.408,7.676c-0.293-.01-0.616-0.03-0.967-0.059a1.794,1.794,0,0,1-.806-0.22,1.7,1.7,0,0,1-.578-0.607,1.777,1.777,0,0,1-.2-0.871V126.544l-0.22-.22-5.918.322v0.909a14.529,14.529,0,0,1,1.5.183,2.884,2.884,0,0,1,1.106.4,1.714,1.714,0,0,1,.571.77,2.982,2.982,0,0,1,.2,1.123v5.034a7.137,7.137,0,0,0-1.675-.652,7.787,7.787,0,0,0-1.982-.256,6.357,6.357,0,0,0-2.641.586,6.576,6.576,0,0,0-2.186,1.567,7.861,7.861,0,0,0-1.493,2.461,8.227,8.227,0,0,0-.541,2.974,9.32,9.32,0,0,0,.5,3.135,7.607,7.607,0,0,0,1.368,2.431,5.988,5.988,0,0,0,2,1.546,5.452,5.452,0,0,0,2.377.549,5.233,5.233,0,0,0,2.3-.542,5.994,5.994,0,0,0,1.88-1.391l0.117,0.029v1.348l0.221,0.2,5.053-.323V147.77Zm-6.6-.44a3.414,3.414,0,0,1-1.937.513,3.5,3.5,0,0,1-1.893-.5,4.064,4.064,0,0,1-1.309-1.319,5.913,5.913,0,0,1-.789-1.867,9.855,9.855,0,0,1-.234-2.234,11.622,11.622,0,0,1,.314-2.805,6.753,6.753,0,0,1,.855-2.088,4.315,4.315,0,0,1,1.309-1.3,3.021,3.021,0,0,1,1.615-.455,3.4,3.4,0,0,1,1.331.242,3.748,3.748,0,0,1,.994.608,3.686,3.686,0,0,1,.658.806,3.8,3.8,0,0,1,.38.82V146.2A6.277,6.277,0,0,1,151.419,147.33Z"/>
</svg>
